<mxfile host="app.diagrams.net" modified="2022-12-06T23:39:22.985Z" agent="5.0 (Windows NT 10.0; WOW64) AppleWebKit/537.36 (KHTML, like Gecko) Chrome/106.0.5249.199 Safari/537.36" etag="hGMm3B9vkKT2THtrBN_j" version="20.6.0" type="github">
  <diagram id="-_QqPTt6IYSgK6NDnBnB" name="Page-1">
    <mxGraphModel dx="868" dy="436" grid="1" gridSize="10" guides="1" tooltips="1" connect="1" arrows="1" fold="1" page="1" pageScale="1" pageWidth="850" pageHeight="1100" math="0" shadow="0">
      <root>
        <mxCell id="0" />
        <mxCell id="1" parent="0" />
      </root>
    </mxGraphModel>
  </diagram>
</mxfile>
